#N canvas 51 23 1345 767 12;
#X obj 19 17 tgl 14 0 empty empty empty 17 7 0 10 -262144 -1 -1 0 1
;
#X obj 852 742 dac~ 1 2;
#X text 40 17 to turn on/ off the DSP;
#X text 797 741 output;
#X msg 19 46 \; pd dsp \$1;
#X obj 853 495 +~;
#X obj 871 455 *~;
#X obj 897 437 hsl 101 10 -1 1 0 1 empty empty empty -2 -8 0 10 -262144
-1 -1 5000 1;
#X msg 897 412 0;
#X text 931 358 first-order allpass;
#X text 932 412 gain;
#X floatatom 906 455 5 0 0 0 - - -, f 5;
#X obj 1155 364 hsl 101 10 -1 1 0 1 empty empty empty -2 -8 0 10 -262144
-1 -1 5000 1;
#X floatatom 1170 385 5 0 0 0 - - -, f 5;
#X obj 871 385 fexpr~ -$f2*$x1[0] + $x1[-1] + $f2*$y[-1];
#X obj 395 65 bng 15 250 50 0 empty empty empty 17 7 0 10 -262144 -1
-1;
#X obj 395 133 openpanel;
#X msg 395 158 open \$1;
#X msg 335 134 start;
#X msg 292 134 stop;
#X obj 395 193 readsf~;
#X obj 395 230 *~;
#X obj 484 159 vsl 15 50 0 1 0 0 empty empty empty 0 -9 0 10 -262144
-1 -1 0 1;
#X text 514 193 To adjust the volume;
#X text 423 60 To open the sound file;
#X obj 395 260 *~ 1;
#X obj 226 364 +~;
#X obj 226 312 *~ 0;
#X obj 166 344 tgl 15 1 empty empty empty 17 7 0 10 -262144 -1 -1 -1500
-1500;
#X obj 166 364 * 0.01;
#X obj 118 365 *~ 0;
#X obj 269 287 hsl 40 15 -0.999 0.999 0 1 empty empty empty -2 -8 0
10 -262144 -1 -1 1950 1;
#X floatatom 269 311 5 0 0 0 - - -, f 5;
#X obj 226 262 delread~ buffer1;
#X obj 226 391 delwrite~ buffer1;
#X obj 226 242 nbx 5 14 0 1e+37 0 1 empty empty empty 0 -8 0 10 -262144
-1 -1 0 256 0;
#X obj 854 346 *~ 1;
#X obj 227 542 +~;
#X obj 227 490 *~ 0;
#X obj 167 522 tgl 15 1 empty empty empty 17 7 0 10 -262144 -1 -1 -1500
-1500;
#X obj 167 542 * 0.01;
#X obj 119 543 *~ 0;
#X obj 270 465 hsl 40 15 -0.999 0.999 0 1 empty empty empty -2 -8 0
10 -262144 -1 -1 1950 1;
#X floatatom 270 489 5 0 0 0 - - -, f 5;
#X obj 227 420 nbx 5 14 0 1e+37 0 1 empty empty empty 0 -8 0 10 -262144
-1 -1 0 256 0;
#X obj 227 441 delread~ buffer2;
#X obj 227 569 delwrite~ buffer2;
#X obj 485 364 +~;
#X obj 485 312 *~ 0;
#X obj 425 344 tgl 15 1 empty empty empty 17 7 0 10 -262144 -1 -1 -1500
-1500;
#X obj 425 364 * 0.01;
#X obj 377 365 *~ 0;
#X obj 528 287 hsl 40 15 -0.999 0.999 0 1 empty empty empty -2 -8 0
10 -262144 -1 -1 1950 1;
#X floatatom 528 311 5 0 0 0 - - -, f 5;
#X obj 485 242 nbx 5 14 0 1e+37 0 1 empty empty empty 0 -8 0 10 -262144
-1 -1 0 256 0;
#X obj 485 262 delread~ buffer3;
#X obj 485 391 delwrite~ buffer3;
#X obj 486 541 +~;
#X obj 486 489 *~ 0;
#X obj 426 521 tgl 15 1 empty empty empty 17 7 0 10 -262144 -1 -1 -1500
-1500;
#X obj 426 541 * 0.01;
#X obj 378 542 *~ 0;
#X obj 529 464 hsl 40 15 -0.999 0.999 0 1 empty empty empty -2 -8 0
10 -262144 -1 -1 1950 1;
#X floatatom 529 488 5 0 0 0 - - -, f 5;
#X obj 486 419 nbx 5 14 0 1e+37 0 1 empty empty empty 0 -8 0 10 -262144
-1 -1 0 256 0;
#X obj 486 439 delread~ buffer4;
#X obj 486 568 delwrite~ buffer4;
#X obj 852 678 +~;
#X obj 870 638 *~;
#X obj 896 620 hsl 101 10 -1 1 0 1 empty empty empty -2 -8 0 10 -262144
-1 -1 5000 1;
#X msg 896 595 0;
#X text 930 541 first-order allpass;
#X text 931 595 gain;
#X floatatom 905 638 5 0 0 0 - - -, f 5;
#X obj 1154 547 hsl 101 10 -1 1 0 1 empty empty empty -2 -8 0 10 -262144
-1 -1 5000 1;
#X floatatom 1169 568 5 0 0 0 - - -, f 5;
#X obj 870 568 fexpr~ -$f2*$x1[0] + $x1[-1] + $f2*$y[-1];
#X obj 853 529 *~ 1;
#X text 136 213 values to be changed;
#X text 34 212 the bigger the value \, the more notcable the reverb
, f 10;
#X msg 1124 329 0;
#X msg 1127 510 0;
#X msg 614 261 0;
#X msg 617 439 0;
#X msg 355 440 0;
#X msg 349 260 0;
#X text 1181 341 Z Pole;
#X text 1181 525 Z Pole;
#X connect 0 0 4 0;
#X connect 5 0 77 0;
#X connect 6 0 5 1;
#X connect 7 0 6 1;
#X connect 7 0 11 0;
#X connect 8 0 7 0;
#X connect 12 0 13 0;
#X connect 12 0 14 1;
#X connect 14 0 6 0;
#X connect 15 0 16 0;
#X connect 16 0 17 0;
#X connect 17 0 20 0;
#X connect 18 0 20 0;
#X connect 19 0 20 0;
#X connect 20 0 21 0;
#X connect 21 0 25 0;
#X connect 22 0 21 1;
#X connect 25 0 26 1;
#X connect 25 0 37 1;
#X connect 25 0 47 1;
#X connect 25 0 57 1;
#X connect 26 0 34 0;
#X connect 27 0 26 0;
#X connect 28 0 29 0;
#X connect 29 0 30 1;
#X connect 30 0 36 0;
#X connect 31 0 27 1;
#X connect 31 0 32 0;
#X connect 33 0 27 0;
#X connect 33 0 30 0;
#X connect 35 0 33 0;
#X connect 36 0 14 0;
#X connect 36 0 5 0;
#X connect 37 0 46 0;
#X connect 38 0 37 0;
#X connect 39 0 40 0;
#X connect 40 0 41 1;
#X connect 41 0 36 0;
#X connect 42 0 38 1;
#X connect 42 0 43 0;
#X connect 44 0 45 0;
#X connect 45 0 38 0;
#X connect 45 0 41 0;
#X connect 47 0 56 0;
#X connect 48 0 47 0;
#X connect 48 0 36 0;
#X connect 49 0 50 0;
#X connect 50 0 51 1;
#X connect 52 0 48 1;
#X connect 52 0 53 0;
#X connect 54 0 55 0;
#X connect 55 0 48 0;
#X connect 55 0 51 0;
#X connect 57 0 66 0;
#X connect 58 0 57 0;
#X connect 58 0 36 0;
#X connect 59 0 60 0;
#X connect 60 0 61 1;
#X connect 62 0 58 1;
#X connect 62 0 63 0;
#X connect 64 0 65 0;
#X connect 65 0 58 0;
#X connect 65 0 61 0;
#X connect 67 0 1 0;
#X connect 67 0 1 1;
#X connect 68 0 67 1;
#X connect 69 0 68 1;
#X connect 69 0 73 0;
#X connect 70 0 69 0;
#X connect 74 0 75 0;
#X connect 74 0 76 1;
#X connect 76 0 68 0;
#X connect 77 0 76 0;
#X connect 77 0 67 0;
#X connect 80 0 12 0;
#X connect 81 0 74 0;
#X connect 82 0 52 0;
#X connect 83 0 62 0;
#X connect 84 0 42 0;
#X connect 85 0 31 0;
