#N canvas 31 23 1341 745 12;
#X obj 300 15 tgl 32 0 empty empty empty 17 7 0 10 -262144 -1 -1 0
1;
#X obj 300 76 counter;
#X floatatom 300 101 5 0 0 0 - - -, f 5;
#X obj 273 71 bng 15 250 50 0 empty empty empty 17 7 0 10 -262144 -1
-1;
#X floatatom 300 153 5 0 0 0 - - -, f 5;
#X obj 300 177 sel 0 1 2 3 4 5 6;
#X text 409 344 mid octave;
#X text 21 423 low octave;
#X text 975 221 high octave;
#X msg 20 453 262;
#X msg 807 251 587;
#X msg 394 373 440;
#X msg 467 373 524;
#X obj 180 542 osc~;
#X obj 575 427 osc~;
#X obj 180 674 *~;
#X obj 692 692 dac~;
#X obj 198 633 vline~;
#X text 251 632 smoothing;
#X msg 521 585 1;
#X msg 198 585 0.125;
#X msg 247 585 0.25;
#X msg 289 585 0.375;
#X msg 337 585 0.5;
#X msg 373 585 0.625;
#X msg 423 585 0.75;
#X msg 470 585 0.875;
#X msg 674 64 0;
#X obj 593 486 vline~;
#X text 606 457 smoothing;
#X obj 575 519 *~;
#X obj 325 446 bng 15 250 50 0 empty empty empty 17 7 0 10 -262144
-1 -1;
#X obj 343 446 bng 15 250 50 0 empty empty empty 17 7 0 10 -262144
-1 -1;
#X obj 361 446 bng 15 250 50 0 empty empty empty 17 7 0 10 -262144
-1 -1;
#X obj 379 446 bng 15 250 50 0 empty empty empty 17 7 0 10 -262144
-1 -1;
#X obj 397 446 bng 15 250 50 0 empty empty empty 17 7 0 10 -262144
-1 -1;
#X obj 415 446 bng 15 250 50 0 empty empty empty 17 7 0 10 -262144
-1 -1;
#X obj 433 446 bng 15 250 50 0 empty empty empty 17 7 0 10 -262144
-1 -1;
#X obj 451 446 bng 15 250 50 0 empty empty empty 17 7 0 10 -262144
-1 -1;
#X obj 22 542 bng 15 250 50 0 empty empty empty 17 7 0 10 -262144 -1
-1;
#X obj 40 542 bng 15 250 50 0 empty empty empty 17 7 0 10 -262144 -1
-1;
#X obj 58 542 bng 15 250 50 0 empty empty empty 17 7 0 10 -262144 -1
-1;
#X obj 76 542 bng 15 250 50 0 empty empty empty 17 7 0 10 -262144 -1
-1;
#X obj 94 542 bng 15 250 50 0 empty empty empty 17 7 0 10 -262144 -1
-1;
#X obj 112 542 bng 15 250 50 0 empty empty empty 17 7 0 10 -262144
-1 -1;
#X obj 130 542 bng 15 250 50 0 empty empty empty 17 7 0 10 -262144
-1 -1;
#X obj 148 542 bng 15 250 50 0 empty empty empty 17 7 0 10 -262144
-1 -1;
#X obj 300 127 % 8;
#X text 673 40 SOS;
#X msg 971 342 1;
#X msg 648 342 0.125;
#X msg 697 342 0.25;
#X msg 739 342 0.375;
#X msg 787 342 0.5;
#X msg 823 342 0.625;
#X msg 873 342 0.75;
#X msg 920 342 0.875;
#X obj 1038 342 osc~;
#X obj 1056 401 vline~;
#X text 1069 372 smoothing;
#X obj 1038 434 *~;
#X obj 1177 336 bng 15 250 50 0 empty empty empty 17 7 0 10 -262144
-1 -1;
#X obj 1195 336 bng 15 250 50 0 empty empty empty 17 7 0 10 -262144
-1 -1;
#X obj 1213 336 bng 15 250 50 0 empty empty empty 17 7 0 10 -262144
-1 -1;
#X obj 1231 336 bng 15 250 50 0 empty empty empty 17 7 0 10 -262144
-1 -1;
#X obj 1249 336 bng 15 250 50 0 empty empty empty 17 7 0 10 -262144
-1 -1;
#X obj 1267 336 bng 15 250 50 0 empty empty empty 17 7 0 10 -262144
-1 -1;
#X obj 1285 336 bng 15 250 50 0 empty empty empty 17 7 0 10 -262144
-1 -1;
#X obj 1303 336 bng 15 250 50 0 empty empty empty 17 7 0 10 -262144
-1 -1;
#X msg 55 453 277;
#X msg 89 453 294;
#X msg 125 453 311;
#X msg 162 453 330;
#X msg 198 453 349;
#X msg 235 453 370;
#X msg 270 453 392;
#X msg 325 373 392;
#X msg 360 373 415;
#X msg 430 373 466;
#X msg 503 373 494;
#X msg 540 374 524;
#X msg 575 373 554;
#X msg 772 251 554;
#X msg 841 251 622;
#X msg 877 251 659;
#X msg 914 251 698;
#X msg 950 251 740;
#X msg 987 251 784;
#X msg 1022 251 831;
#X msg 1054 563 open p4upwards.wav;
#X obj 1031 656 writesf~;
#X msg 1072 592 start;
#X msg 1096 619 stop;
#X obj 692 599 +~;
#X obj 692 635 +~;
#X text 378 50 changing the number for metro \, will change the speed
in which the notes are played, f 22;
#X text 720 38 this message should be sent when turning off the last
note \, else it will play forever, f 21;
#X text 76 20 this turns on everything---->;
#X obj 300 51 metro 200;
#X msg 594 341 1;
#X connect 0 0 98 0;
#X connect 1 0 2 0;
#X connect 2 0 47 0;
#X connect 4 0 5 0;
#X connect 5 0 99 0;
#X connect 5 0 88 0;
#X connect 5 0 75 0;
#X connect 5 0 81 0;
#X connect 5 0 50 0;
#X connect 5 0 19 0;
#X connect 5 1 99 0;
#X connect 5 1 87 0;
#X connect 5 1 74 0;
#X connect 5 1 80 0;
#X connect 5 1 51 0;
#X connect 5 1 26 0;
#X connect 5 2 99 0;
#X connect 5 2 86 0;
#X connect 5 2 73 0;
#X connect 5 2 79 0;
#X connect 5 2 52 0;
#X connect 5 2 25 0;
#X connect 5 3 99 0;
#X connect 5 3 85 0;
#X connect 5 3 72 0;
#X connect 5 3 12 0;
#X connect 5 3 53 0;
#X connect 5 3 24 0;
#X connect 5 4 99 0;
#X connect 5 4 84 0;
#X connect 5 4 71 0;
#X connect 5 4 78 0;
#X connect 5 4 54 0;
#X connect 5 4 23 0;
#X connect 5 5 99 0;
#X connect 5 5 83 0;
#X connect 5 5 70 0;
#X connect 5 5 11 0;
#X connect 5 5 55 0;
#X connect 5 5 22 0;
#X connect 5 6 99 0;
#X connect 5 6 10 0;
#X connect 5 6 69 0;
#X connect 5 6 77 0;
#X connect 5 6 56 0;
#X connect 5 6 21 0;
#X connect 5 7 99 0;
#X connect 5 7 82 0;
#X connect 5 7 9 0;
#X connect 5 7 76 0;
#X connect 5 7 49 0;
#X connect 5 7 20 0;
#X connect 9 0 13 0;
#X connect 9 0 39 0;
#X connect 10 0 57 0;
#X connect 10 0 62 0;
#X connect 11 0 14 0;
#X connect 11 0 33 0;
#X connect 12 0 14 0;
#X connect 12 0 35 0;
#X connect 13 0 15 0;
#X connect 14 0 30 0;
#X connect 15 0 93 0;
#X connect 17 0 15 1;
#X connect 19 0 17 0;
#X connect 20 0 17 0;
#X connect 21 0 17 0;
#X connect 22 0 17 0;
#X connect 23 0 17 0;
#X connect 24 0 17 0;
#X connect 25 0 17 0;
#X connect 26 0 17 0;
#X connect 27 0 17 0;
#X connect 27 0 28 0;
#X connect 27 0 58 0;
#X connect 28 0 30 1;
#X connect 30 0 93 1;
#X connect 47 0 4 0;
#X connect 49 0 58 0;
#X connect 50 0 58 0;
#X connect 51 0 58 0;
#X connect 52 0 58 0;
#X connect 53 0 58 0;
#X connect 54 0 58 0;
#X connect 55 0 58 0;
#X connect 56 0 58 0;
#X connect 57 0 60 0;
#X connect 58 0 60 1;
#X connect 60 0 94 1;
#X connect 69 0 13 0;
#X connect 69 0 40 0;
#X connect 70 0 13 0;
#X connect 70 0 41 0;
#X connect 71 0 13 0;
#X connect 71 0 42 0;
#X connect 72 0 13 0;
#X connect 72 0 43 0;
#X connect 73 0 13 0;
#X connect 73 0 44 0;
#X connect 74 0 13 0;
#X connect 74 0 45 0;
#X connect 75 0 13 0;
#X connect 75 0 46 0;
#X connect 76 0 14 0;
#X connect 76 0 31 0;
#X connect 77 0 14 0;
#X connect 77 0 32 0;
#X connect 78 0 14 0;
#X connect 78 0 34 0;
#X connect 79 0 14 0;
#X connect 79 0 36 0;
#X connect 80 0 14 0;
#X connect 80 0 37 0;
#X connect 81 0 14 0;
#X connect 81 0 38 0;
#X connect 82 0 57 0;
#X connect 82 0 61 0;
#X connect 83 0 57 0;
#X connect 83 0 63 0;
#X connect 84 0 57 0;
#X connect 84 0 64 0;
#X connect 85 0 57 0;
#X connect 85 0 65 0;
#X connect 86 0 57 0;
#X connect 86 0 66 0;
#X connect 87 0 57 0;
#X connect 87 0 67 0;
#X connect 88 0 57 0;
#X connect 88 0 68 0;
#X connect 89 0 90 0;
#X connect 91 0 90 0;
#X connect 92 0 90 0;
#X connect 93 0 94 0;
#X connect 94 0 16 0;
#X connect 94 0 16 1;
#X connect 94 0 90 0;
#X connect 98 0 1 0;
#X connect 98 0 3 0;
#X connect 99 0 28 0;
